<svg xmlns="http://www.w3.org/2000/svg" width="26" height="30" viewBox="0 0 26 30">
    <g fill="none" fill-rule="evenodd" stroke-linecap="round">
        <path stroke="#A8E6CA" stroke-width="2.621" d="M24.575 5.307C19.384.117 11.017.067 5.887 5.197c-5.13 5.13-5.08 13.497.11 18.688 5.191 5.19 13.558 5.24 18.688.11"/>
        <path stroke="#FFCE7A" stroke-width="2.941" d="M21.112 8.77c-3.253-3.253-8.492-3.288-11.703-.077-3.21 3.21-3.175 8.45.078 11.702 3.253 3.253 8.492 3.288 11.702.078"/>
        <path stroke="#EE8491" stroke-width="2.52" d="M17.897 11.985c-1.454-1.453-3.795-1.468-5.23-.034-1.434 1.434-1.418 3.775.035 5.229 1.454 1.453 3.795 1.469 5.23.034"/>
    </g>
</svg>
